<?xml version="1.0" standalone="no"?><!DOCTYPE svg PUBLIC "-//W3C//DTD SVG 1.1//EN" "http://www.w3.org/Graphics/SVG/1.1/DTD/svg11.dtd"><svg t="1563429215514" class="icon" viewBox="0 0 1024 1024" version="1.1" xmlns="http://www.w3.org/2000/svg" p-id="903" xmlns:xlink="http://www.w3.org/1999/xlink" width="200" height="200"><defs><style type="text/css"></style></defs><path d="M512 512m-448 0a448 448 0 1 0 896 0 448 448 0 1 0-896 0Z" fill="#FFF7F9" p-id="904"></path><path d="M714.6 522.5c2.7-6.1 9.8-8.8 15.9-6.1 6.1 2.7 8.8 9.8 6.1 15.9-10.4 23.3-24.5 45.5-41.9 66.6-4.2 5.1-11.8 5.8-16.9 1.6s-5.8-11.8-1.6-16.9c15.9-19.4 28.9-39.9 38.4-61.1z m-60 84.8c4.7-4.7 12.3-4.7 17-0.1s4.7 12.3 0.1 17c-4.4 4.4-8.9 8.7-13.5 13-4.9 4.5-12.5 4.2-17-0.7s-4.2-12.5 0.7-17c4.3-3.9 8.6-8 12.7-12.2zM255 478c0 40 12.1 78.2 34.8 114.2 20 31.7 47.8 61.1 81.2 87.2 28.2 22.1 59.4 41 89 54.9 23.9 11.2 44.7 17.9 51.6 17.7 7.4-0.1 28.4-7.1 52.2-18.4 29.7-14 60.9-32.9 89-54.9 33.4-26.1 61.3-55.3 81.2-86.9C756.9 556 769 518 769 478c0-37.9-10.1-73.3-29.1-98.9-21.2-28.4-52.6-44.1-94.7-44.1-54.3 0-101.8 35.3-118 86.3-4.7 14.9-25.8 14.9-30.5 0C480.6 370.5 432.5 335 378 335c-38.5 0-69.5 15.9-91.4 44.3-20.3 26.3-31.6 62.2-31.6 98.7z m390.2-175c52.2 0 93.1 20.4 120.3 57C789 391.5 801 433.6 801 478c0 46.4-14 90.2-39.8 131-22.1 34.9-52.4 66.8-88.6 95-30.1 23.5-63.3 43.6-95.1 58.6-27.7 13.1-52.1 21.1-65.2 21.4-13.3 0.3-37.8-7.6-65.9-20.7-31.7-14.9-65-35.1-95.1-58.7-36.1-28.3-66.5-60.3-88.6-95.3C236.9 568.4 223 524.4 223 478c0-43.3 13.4-86.1 38.2-118.2C289.1 323.6 329.4 303 378 303c55.8 0 106.2 29.5 134 75.1 27.6-45.6 77.6-75.1 133.2-75.1z m-86.4 146.4c-6.7 3.9-10.8 11.1-10.8 18.9 0 1.3 0.4 2.6 1.1 3.7 2.1 3.1 6.3 4 9.4 2l2-1.3c7.6-5 17.4-5 25 0l2 1.3c1.1 0.7 2.4 1.1 3.7 1.1 3.8 0 6.8-3 6.8-6.8 0-7.8-4.1-15-10.8-18.9l-1.7-1c-7.7-4.5-17.3-4.5-25 0l-1.7 1z m-121 0c-6.7 3.9-10.8 11.1-10.8 18.9 0 1.3 0.4 2.6 1.1 3.7 2.1 3.1 6.3 4 9.4 2l2-1.3c7.6-5 17.4-5 25 0l2 1.3c1.1 0.7 2.4 1.1 3.7 1.1 3.8 0 6.8-3 6.8-6.8 0-7.8-4.1-15-10.8-18.9l-1.7-1c-7.7-4.5-17.3-4.5-25 0l-1.7 1z m90.2 46.3c0 8.4-7.1 15.3-16 15.3s-16-6.9-16-15.3c0-6.6-5.4-12-12-12s-12 5.4-12 12c0 21.8 18 39.3 40 39.3s40-17.5 40-39.3c0-6.6-5.4-12-12-12s-12 5.3-12 12z" fill="#FF94B2" p-id="905"></path><path d="M403 509c-11.6 0-21-5.1-21-11.5s9.4-11.5 21-11.5 21 5.1 21 11.5-9.4 11.5-21 11.5z m218 0c-11.6 0-21-5.1-21-11.5s9.4-11.5 21-11.5 21 5.1 21 11.5-9.4 11.5-21 11.5z" fill="#FBB7CC" p-id="906"></path></svg>